<svg width="48" height="48" viewBox="0 0 48 48" fill="none" xmlns="http://www.w3.org/2000/svg">
<g id="mage:robot-appreciate">
<g id="Group">
<path id="Vector" d="M29.412 8.62596H18.588C17.2796 8.62544 15.9838 8.88274 14.7748 9.38317C13.5658 9.88359 12.4673 10.6173 11.5419 11.5425C10.6166 12.4676 9.88266 13.566 9.38199 14.7749C8.88132 15.9838 8.62376 17.2795 8.62402 18.588V29.412C8.6235 30.7206 8.88087 32.0165 9.38142 33.2256C9.88197 34.4348 10.6159 35.5334 11.5412 36.4587C12.4666 37.3841 13.5652 38.118 14.7743 38.6186C15.9835 39.1191 17.2794 39.3765 18.588 39.376H29.412C30.7207 39.3765 32.0166 39.1191 33.2257 38.6186C34.4348 38.118 35.5335 37.3841 36.4588 36.4587C37.3842 35.5334 38.1181 34.4348 38.6186 33.2256C39.1192 32.0165 39.3765 30.7206 39.376 29.412V18.588C39.3765 17.2793 39.1192 15.9834 38.6186 14.7743C38.1181 13.5652 37.3842 12.4665 36.4588 11.5412C35.5335 10.6158 34.4348 9.88191 33.2257 9.38136C32.0166 8.88081 30.7207 8.62344 29.412 8.62396V8.62596Z" stroke="#333333" stroke-width="3"/>
<path id="Vector_2" d="M39.212 31.1759H42.45C42.9937 31.1759 43.5151 30.9599 43.8996 30.5754C44.284 30.191 44.5 29.6696 44.5 29.1259V18.8759C44.5 18.3322 44.284 17.8107 43.8996 17.4263C43.5151 17.0418 42.9937 16.8259 42.45 16.8259H39.21M8.79 31.1759H5.55C5.28079 31.1759 5.01422 31.1228 4.7655 31.0198C4.51678 30.9168 4.29079 30.7658 4.10043 30.5754C3.91007 30.3851 3.75907 30.1591 3.65605 29.9104C3.55302 29.6617 3.5 29.3951 3.5 29.1259V18.8759C3.5 18.3322 3.71598 17.8107 4.10043 17.4263C4.48488 17.0418 5.00631 16.8259 5.55 16.8259H8.79" stroke="#333333" stroke-width="3"/>
<path id="Vector_3" d="M5.53027 16.8259V8.62585M42.4503 16.8259L42.4303 8.62585M19.8803 31.1759H28.0803M15.7603 21.9499L17.8063 19.8999L19.8563 21.9499M28.0603 21.9499L30.1103 19.8999L32.1583 21.9499" stroke="#333333" stroke-width="3" stroke-linecap="round" stroke-linejoin="round"/>
</g>
</g>
</svg>
