<svg width="24" height="24" viewBox="0 0 24 24" fill="none" xmlns="http://www.w3.org/2000/svg">
<g id="fi:more-vertical">
<path id="Vector" d="M11.5 17.3159C11.7761 17.3159 12 17.0921 12 16.8159C12 16.5398 11.7761 16.3159 11.5 16.3159C11.2239 16.3159 11 16.5398 11 16.8159C11 17.0921 11.2239 17.3159 11.5 17.3159Z" fill="#666666" stroke="#666666" stroke-width="2" stroke-linecap="round" stroke-linejoin="round"/>
<path id="Vector_2" d="M11.5 12.3159C11.7761 12.3159 12 12.0921 12 11.8159C12 11.5398 11.7761 11.3159 11.5 11.3159C11.2239 11.3159 11 11.5398 11 11.8159C11 12.0921 11.2239 12.3159 11.5 12.3159Z" fill="#666666" stroke="#666666" stroke-width="2" stroke-linecap="round" stroke-linejoin="round"/>
<path id="Vector_3" d="M11.5 7.31592C11.7761 7.31592 12 7.09206 12 6.81592C12 6.53978 11.7761 6.31592 11.5 6.31592C11.2239 6.31592 11 6.53978 11 6.81592C11 7.09206 11.2239 7.31592 11.5 7.31592Z" fill="#666666" stroke="#666666" stroke-width="2" stroke-linecap="round" stroke-linejoin="round"/>
</g>
</svg>
