<svg width="140" height="140" viewBox="0 0 140 140" fill="none" xmlns="http://www.w3.org/2000/svg">
<g id="Generic avatar">
<rect x="2" y="2" width="136" height="136" rx="68" fill="#DBDBDB"/>
<rect x="2" y="2" width="136" height="136" rx="68" stroke="#C2C2C2" stroke-width="4"/>
<g id="Avatar Placeholder">
<path fill-rule="evenodd" clip-rule="evenodd" d="M91.0009 56C91.0009 67.598 81.5988 77 70.0009 77C58.4029 77 49.0009 67.598 49.0009 56C49.0009 44.402 58.4029 35 70.0009 35C81.5988 35 91.0009 44.402 91.0009 56ZM84.0009 56C84.0009 63.732 77.7328 70 70.0009 70C62.2689 70 56.0009 63.732 56.0009 56C56.0009 48.268 62.2689 42 70.0009 42C77.7328 42 84.0009 48.268 84.0009 56Z" fill="#C2C2C2"/>
<path d="M70.0009 87.5C47.3405 87.5 28.0333 100.899 20.6787 119.672C22.4703 121.451 24.3577 123.134 26.3324 124.712C31.809 107.477 48.9894 94.5 70.0009 94.5C91.0124 94.5 108.193 107.477 113.669 124.712C115.644 123.134 117.531 121.451 119.323 119.672C111.968 100.899 92.6612 87.5 70.0009 87.5Z" fill="#C2C2C2"/>
</g>
</g>
</svg>
