<svg width="200" height="176" viewBox="0 0 200 176" fill="none" xmlns="http://www.w3.org/2000/svg">
<g id="Group 90">
<path id="Vector" d="M26.9666 129.153C27.8845 129.153 28.6286 128.409 28.6286 127.491C28.6286 126.573 27.8845 125.829 26.9666 125.829C26.0488 125.829 25.3047 126.573 25.3047 127.491C25.3047 128.409 26.0488 129.153 26.9666 129.153Z" fill="#6EC4BF"/>
<path id="Vector_2" d="M134.737 59.6914C120.543 59.6914 106.094 59.1148 92.5785 55.35C79.3169 51.67 67.1407 44.5305 56.2873 36.2717C49.1817 30.8959 42.7205 26.6054 33.4951 27.2498C24.4699 27.7382 15.8392 31.1084 8.87134 36.8652C-2.86394 47.1421 -1.10026 66.1865 3.59725 79.5159C10.652 99.6456 32.1214 113.67 50.3688 122.743C71.4482 133.274 94.6135 139.396 117.83 142.907C138.18 146.01 164.33 148.249 181.967 134.97C198.162 122.743 202.605 94.8633 198.637 76.0394C197.674 70.4784 194.713 65.4608 190.31 61.9299C178.931 53.6033 161.956 59.1657 149.169 59.437C144.421 59.5388 139.587 59.6575 134.737 59.6914Z" fill="#DBF0EF"/>
<path id="Vector_3" d="M105.179 145.012C115.753 145.012 124.325 136.44 124.325 125.866C124.325 115.292 115.753 106.72 105.179 106.72C94.6052 106.72 86.0332 115.292 86.0332 125.866C86.0332 136.44 94.6052 145.012 105.179 145.012Z" fill="#93D2CF"/>
<path id="Vector_4" d="M85.3942 6.33007C86.4528 6.09404 87.5475 6.06881 88.6158 6.25584C89.6841 6.44287 90.7051 6.83848 91.6206 7.4201C92.536 8.00171 93.3279 8.75794 93.951 9.6456C94.5742 10.5333 95.0164 11.535 95.2525 12.5935L98.3121 26.3152L82.1573 29.9173L79.0977 16.1957C78.861 15.1343 78.8363 14.0367 79.0249 12.9657C79.2135 11.8948 79.6118 10.8716 80.1968 9.95501C80.7818 9.03838 81.5421 8.2463 82.434 7.62423C83.3259 7.00217 84.3319 6.56237 85.3942 6.33007Z" fill="#FBFBFB" stroke="#3B918C" stroke-width="1.69585" stroke-linecap="round" stroke-linejoin="round"/>
<path id="Vector_5" d="M160.871 113.975L62.6981 135.851C62.0883 135.988 61.4534 135.963 60.8559 135.78C60.2585 135.597 59.7192 135.261 59.2912 134.805C58.8632 134.35 58.5613 133.791 58.4152 133.183C58.2692 132.576 58.2841 131.94 58.4585 131.34L58.8655 129.933C62.2572 117.909 65.208 104.664 62.4946 92.4543L56.6948 66.4061C51.8107 44.5127 64.9366 22.2123 86.7113 16.8364C92.021 15.5183 97.5407 15.2755 102.946 16.1225C108.351 16.9694 113.531 18.8888 118.183 21.7679C122.836 24.647 126.865 28.4275 130.034 32.8869C133.203 37.3464 135.448 42.3947 136.637 47.7348L142.623 74.6649C145.354 86.875 153.596 97.6606 161.837 107.056L162.804 108.158C163.195 108.63 163.46 109.194 163.573 109.797C163.687 110.399 163.645 111.021 163.451 111.603C163.258 112.185 162.919 112.708 162.468 113.123C162.017 113.538 161.467 113.831 160.871 113.975Z" fill="#FBFBFB" stroke="#3B918C" stroke-width="1.69585" stroke-linecap="round" stroke-linejoin="round"/>
<path id="Vector_6" d="M88.2543 97.1862C88.2275 93.2252 89.5583 89.3746 92.0251 86.2754C94.4919 83.1762 97.9459 81.0155 101.812 80.1531C105.678 79.2907 109.723 79.7786 113.273 81.5355C116.823 83.2924 119.664 86.2124 121.323 89.8092" stroke="#3B918C" stroke-width="1.69585" stroke-linecap="round" stroke-linejoin="round"/>
<path id="Vector_7" d="M118.543 69.6639C119.873 69.6639 120.951 68.5857 120.951 67.2558C120.951 65.9258 119.873 64.8477 118.543 64.8477C117.213 64.8477 116.135 65.9258 116.135 67.2558C116.135 68.5857 117.213 69.6639 118.543 69.6639Z" fill="#3B918C"/>
<path id="Vector_8" d="M81.1996 77.9891C82.5296 77.9891 83.6077 76.9109 83.6077 75.581C83.6077 74.251 82.5296 73.1729 81.1996 73.1729C79.8696 73.1729 78.7915 74.251 78.7915 75.581C78.7915 76.9109 79.8696 77.9891 81.1996 77.9891Z" fill="#3B918C"/>
<path id="Vector_9" d="M126.106 3.77895C127.024 3.77895 127.768 3.03487 127.768 2.11701C127.768 1.19915 127.024 0.455078 126.106 0.455078C125.188 0.455078 124.444 1.19915 124.444 2.11701C124.444 3.03487 125.188 3.77895 126.106 3.77895Z" fill="#6EC4BF"/>
<path id="Vector_10" d="M26.9666 129.153C27.8845 129.153 28.6286 128.409 28.6286 127.491C28.6286 126.573 27.8845 125.829 26.9666 125.829C26.0488 125.829 25.3047 126.573 25.3047 127.491C25.3047 128.409 26.0488 129.153 26.9666 129.153Z" fill="#6EC4BF"/>
<path id="Vector_11" d="M172.03 42.2578V49.55" stroke="#3B918C" stroke-width="1.69585" stroke-linecap="round" stroke-linejoin="round"/>
<path id="Vector_12" d="M168.383 45.9033H175.675" stroke="#3B918C" stroke-width="1.69585" stroke-linecap="round" stroke-linejoin="round"/>
<path id="Vector_13" d="M175.354 152.046V159.338" stroke="#3B918C" stroke-width="1.69585" stroke-linecap="round" stroke-linejoin="round"/>
<path id="Vector_14" d="M171.707 155.693H178.999" stroke="#3B918C" stroke-width="1.69585" stroke-linecap="round" stroke-linejoin="round"/>
<path id="Vector_15" d="M47.8589 14.6162V21.9084" stroke="#3B918C" stroke-width="1.69585" stroke-linecap="round" stroke-linejoin="round"/>
<path id="Vector_16" d="M44.2134 18.2617H51.5055" stroke="#3B918C" stroke-width="1.69585" stroke-linecap="round" stroke-linejoin="round"/>
<path id="Vector_17" d="M100.684 175.904C135.067 175.904 162.939 174.165 162.939 172.02C162.939 169.875 135.067 168.137 100.684 168.137C66.302 168.137 38.4297 169.875 38.4297 172.02C38.4297 174.165 66.302 175.904 100.684 175.904Z" fill="#DBF0EF"/>
<path id="Vector_18" d="M160.159 38.1178C160.155 43.2753 158.104 48.2202 154.457 51.8671C150.81 55.514 145.865 57.5647 140.708 57.5692C140.073 57.5692 139.439 57.5352 138.808 57.4675L133.042 66.8795L131.245 55.0933C128.249 53.4252 125.748 50.995 123.994 48.0488C122.24 45.1025 121.296 41.745 121.258 38.3165C121.219 34.8879 122.088 31.5102 123.775 28.5254C125.463 25.5407 127.909 23.0551 130.867 21.3204C133.825 19.5857 137.188 18.6637 140.617 18.6477C144.046 18.6317 147.418 19.5223 150.391 21.2292C153.365 22.9362 155.835 25.3988 157.55 28.3677C159.265 31.3365 160.165 34.706 160.159 38.1348V38.1178Z" fill="#FBFBFB" stroke="#3B918C" stroke-width="1.69585" stroke-linecap="round" stroke-linejoin="round"/>
<path id="Vector_19" d="M132.397 40.0857C133.484 40.0857 134.365 39.205 134.365 38.1186C134.365 37.0321 133.484 36.1514 132.397 36.1514C131.311 36.1514 130.43 37.0321 130.43 38.1186C130.43 39.205 131.311 40.0857 132.397 40.0857Z" fill="#93D2CF" stroke="#93D2CF" stroke-width="1.69585" stroke-miterlimit="10"/>
<path id="Vector_20" d="M140.707 40.0857C141.793 40.0857 142.674 39.205 142.674 38.1186C142.674 37.0321 141.793 36.1514 140.707 36.1514C139.62 36.1514 138.74 37.0321 138.74 38.1186C138.74 39.205 139.62 40.0857 140.707 40.0857Z" fill="#93D2CF" stroke="#93D2CF" stroke-width="1.69585" stroke-miterlimit="10"/>
<path id="Vector_21" d="M149.017 40.0857C150.103 40.0857 150.984 39.205 150.984 38.1186C150.984 37.0321 150.103 36.1514 149.017 36.1514C147.93 36.1514 147.049 37.0321 147.049 38.1186C147.049 39.205 147.93 40.0857 149.017 40.0857Z" fill="#93D2CF" stroke="#93D2CF" stroke-width="1.69585" stroke-miterlimit="10"/>
</g>
</svg>
