<svg width="181" height="167" viewBox="0 0 181 167" fill="none" xmlns="http://www.w3.org/2000/svg">
<g id="Group 89">
<path id="Vector" d="M121.938 61.5258C109.078 61.5258 96.018 61.0041 83.7867 57.5981C71.7857 54.2535 60.7668 47.8097 50.945 40.3379C44.4994 35.459 38.6677 31.5927 30.3038 32.1757C22.1459 32.6024 14.3404 35.6355 8.03582 40.8289C-2.59939 50.1264 -0.987993 67.3252 3.24767 79.415C9.64721 97.6265 29.0607 110.284 45.589 118.523C64.6648 128.05 85.613 133.635 106.638 136.704C125.054 139.511 148.703 141.536 164.663 129.508C179.335 118.461 183.356 93.2385 179.764 76.2085C178.892 71.1742 176.206 66.6335 172.214 63.4436C161.916 55.9105 146.554 60.9428 134.983 61.1882C130.686 61.3417 126.328 61.5258 121.938 61.5258Z" fill="#DBF0EF"/>
<path id="Vector_2" d="M90.4932 166.621C121.608 166.621 146.831 165.048 146.831 163.108C146.831 161.168 121.608 159.594 90.4932 159.594C59.3789 159.594 34.1558 161.168 34.1558 163.108C34.1558 165.048 59.3789 166.621 90.4932 166.621Z" fill="#DBF0EF"/>
<path id="Vector_3" d="M172.021 38.2973C172.021 38.8514 171.572 39.3008 171.017 39.3008C170.463 39.3008 170.013 38.8514 170.013 38.2973C170.013 37.7431 170.463 37.2937 171.017 37.2937C171.572 37.2937 172.021 37.7431 172.021 38.2973Z" fill="#3B918C" stroke="#3B918C"/>
<path id="Vector_4" d="M107.166 27.5883C107.166 28.1424 106.717 28.5918 106.162 28.5918C105.608 28.5918 105.158 28.1424 105.158 27.5883C105.158 27.0342 105.608 26.5847 106.162 26.5847C106.717 26.5847 107.166 27.0342 107.166 27.5883Z" fill="#3B918C" stroke="#3B918C"/>
<path id="Vector_5" d="M46.0957 126.578V133.175" stroke="#3B918C" stroke-linecap="round" stroke-linejoin="round"/>
<path id="Vector_6" d="M42.7959 129.876H49.3949" stroke="#3B918C" stroke-linecap="round" stroke-linejoin="round"/>
<path id="Vector_7" d="M21.8936 1V7.59724" stroke="#3B918C" stroke-linecap="round" stroke-linejoin="round"/>
<path id="Vector_8" d="M18.5791 4.29858H25.1935" stroke="#3B918C" stroke-linecap="round" stroke-linejoin="round"/>
<path id="Vector_9" d="M141.521 34.9834V41.596" stroke="#3B918C" stroke-linecap="round" stroke-linejoin="round"/>
<path id="Vector_10" d="M138.221 38.2974H144.82" stroke="#3B918C" stroke-linecap="round" stroke-linejoin="round"/>
<path id="Vector_11" d="M81.7915 123.325C88.8812 133.234 99.6115 139.929 111.63 141.942C123.649 143.955 135.976 141.123 145.91 134.065C147.137 133.194 148.32 132.262 149.455 131.272L167.763 136.811L160.75 116.329C164.251 109.002 165.751 100.88 165.098 92.7872C164.444 84.694 161.661 76.9175 157.031 70.2469C152.4 63.5763 146.087 58.249 138.732 54.8055C131.377 51.3621 123.241 49.9251 115.151 50.6404C107.061 51.3556 99.304 54.1977 92.6674 58.8782C86.0309 63.5586 80.7508 69.9109 77.3632 77.2904C73.9756 84.6699 72.6009 92.814 73.3786 100.896C74.1563 108.978 77.0588 116.711 81.7915 123.31V123.325Z" fill="#FBFBFB" stroke="#3B918C" stroke-linecap="round" stroke-linejoin="round"/>
<path id="Vector_12" d="M137.691 96.6291C137.691 98.0306 136.554 99.1669 135.152 99.1669C133.75 99.1669 132.613 98.0306 132.613 96.6291C132.613 95.2276 133.75 94.0913 135.152 94.0913C136.554 94.0913 137.691 95.2276 137.691 96.6291Z" fill="#6EC4BF" stroke="#6EC4BF"/>
<path id="Vector_13" d="M123.034 96.6291C123.034 98.0306 121.898 99.1669 120.496 99.1669C119.093 99.1669 117.957 98.0306 117.957 96.6291C117.957 95.2276 119.093 94.0913 120.496 94.0913C121.898 94.0913 123.034 95.2276 123.034 96.6291Z" fill="#6EC4BF" stroke="#6EC4BF"/>
<path id="Vector_14" d="M108.394 96.6291C108.394 98.0306 107.257 99.1669 105.855 99.1669C104.453 99.1669 103.316 98.0306 103.316 96.6291C103.316 95.2276 104.453 94.0913 105.855 94.0913C107.257 94.0913 108.394 95.2276 108.394 96.6291Z" fill="#6EC4BF" stroke="#6EC4BF"/>
<path id="Vector_15" d="M96.8009 92.0111C89.7111 101.92 78.9809 108.615 66.9619 110.628C54.943 112.641 42.6159 109.809 32.6827 102.751C31.4515 101.885 30.268 100.953 29.1376 99.9585L10.8291 105.528L17.8425 85.0303C14.3416 77.7038 12.8416 69.5819 13.4948 61.4886C14.1479 53.3954 16.9309 45.6189 21.5614 38.9483C26.192 32.2777 32.5051 26.9504 39.8604 23.507C47.2156 20.0635 55.351 18.6265 63.4412 19.3418C71.5314 20.0571 79.2884 22.8991 85.9249 27.5796C92.5615 32.26 97.8415 38.6123 101.229 45.9918C104.617 53.3713 105.992 61.5154 105.214 69.5976C104.436 77.6798 101.534 85.4126 96.8009 92.0111Z" fill="#FBFBFB" stroke="#3B918C" stroke-linecap="round" stroke-linejoin="round"/>
<path id="Vector_16" d="M46.2798 74.2293C47.6416 71.9297 49.574 70.0204 51.8902 68.6862C54.2063 67.3519 56.8277 66.6379 59.5007 66.6132C62.1737 66.5885 64.8079 67.254 67.1483 68.5452C69.4887 69.8365 71.4561 71.7098 72.8601 73.9839" stroke="#6EC4BF" stroke-linecap="round" stroke-linejoin="round"/>
<path id="Vector_17" d="M78.4371 58.58C78.4371 59.4985 77.6923 60.2433 76.7732 60.2433C75.8542 60.2433 75.1094 59.4985 75.1094 58.58C75.1094 57.6616 75.8542 56.9167 76.7732 56.9167C77.6923 56.9167 78.4371 57.6616 78.4371 58.58Z" fill="#6EC4BF" stroke="#6EC4BF"/>
<path id="Vector_18" d="M44.1529 58.58C44.1529 59.4985 43.4081 60.2433 42.4891 60.2433C41.57 60.2433 40.8252 59.4985 40.8252 58.58C40.8252 57.6616 41.57 56.9167 42.4891 56.9167C43.4081 56.9167 44.1529 57.6616 44.1529 58.58Z" fill="#6EC4BF" stroke="#6EC4BF"/>
</g>
</svg>
