<svg width="189" height="167" viewBox="0 0 189 167" fill="none" xmlns="http://www.w3.org/2000/svg">
<path d="M136.613 3.12396C137.476 3.12396 138.175 2.42464 138.175 1.56198C138.175 0.699323 137.476 0 136.613 0C135.75 0 135.051 0.699323 135.051 1.56198C135.051 2.42464 135.75 3.12396 136.613 3.12396Z" fill="#6EC4BF"/>
<path d="M18.1554 148.032C19.0181 148.032 19.7175 147.333 19.7175 146.47C19.7175 145.608 19.0181 144.908 18.1554 144.908C17.2927 144.908 16.5933 145.608 16.5933 146.47C16.5933 147.333 17.2927 148.032 18.1554 148.032Z" fill="#6EC4BF"/>
<path d="M147.495 111.148C148.358 111.148 149.057 110.449 149.057 109.586C149.057 108.724 148.358 108.024 147.495 108.024C146.632 108.024 145.933 108.724 145.933 109.586C145.933 110.449 146.632 111.148 147.495 111.148Z" fill="#6EC4BF"/>
<path d="M126.783 57.636C113.409 57.636 99.8234 57.0919 87.1157 53.5643C74.408 50.0367 63.2449 43.3851 52.9594 35.6103C46.272 30.5382 40.1639 26.5192 31.5107 27.1335C23.0238 27.5851 14.9071 30.7539 8.35947 36.1719C-2.75101 45.8421 -0.995799 63.726 3.39223 76.292C10.0269 95.2465 30.2294 108.392 47.3953 116.974C67.2292 126.872 89.0114 132.629 110.864 135.946C130.171 138.859 154.621 140.965 171.208 128.452C186.461 116.974 190.638 90.736 186.899 73.0277C185.995 67.7939 183.211 63.07 179.071 59.742C168.364 51.9146 152.392 57.1446 140.351 57.4078C135.911 57.5131 131.347 57.6185 126.783 57.636Z" fill="#DBF0EF"/>
<path d="M179.826 32.3477V39.2274" stroke="#3B918C" stroke-width="1.64825" stroke-linecap="round" stroke-linejoin="round"/>
<path d="M176.404 35.7861H183.266" stroke="#3B918C" stroke-width="1.64825" stroke-linecap="round" stroke-linejoin="round"/>
<path d="M94.1016 166.976C126.45 166.976 152.673 165.342 152.673 163.326C152.673 161.31 126.45 159.675 94.1016 159.675C61.7536 159.675 35.5303 161.31 35.5303 163.326C35.5303 165.342 61.7536 166.976 94.1016 166.976Z" fill="#DBF0EF"/>
<path d="M159.06 34.1026L37.793 23.3662C34.2783 23.055 31.1767 25.6517 30.8655 29.1662L23.3155 114.426C23.0043 117.94 25.6013 121.041 29.1161 121.353L150.383 132.089C153.898 132.4 156.999 129.804 157.311 126.289L164.861 41.0295C165.172 37.515 162.575 34.4138 159.06 34.1026Z" fill="#FBFBFB" stroke="#3B918C" stroke-width="1.64825" stroke-linecap="round" stroke-linejoin="round"/>
<path d="M129.754 65.2776L61.1833 59.2067C59.5804 59.0648 58.166 60.249 58.024 61.8517L57.6014 66.6243C57.4595 68.227 58.6438 69.6413 60.2467 69.7833L128.818 75.8542C130.421 75.9961 131.835 74.8119 131.977 73.2092L132.4 68.4366C132.542 66.8338 131.357 65.4195 129.754 65.2776Z" fill="#FBFBFB" stroke="#3B918C" stroke-width="1.64825" stroke-linecap="round" stroke-linejoin="round"/>
<path d="M127.926 85.886L59.3552 79.8151C57.7523 79.6731 56.3378 80.8574 56.1959 82.4601L55.7733 87.2327C55.6313 88.8354 56.8157 90.2497 58.4186 90.3917L126.99 96.4626C128.593 96.6045 130.007 95.4203 130.149 93.8176L130.572 89.045C130.713 87.4422 129.529 86.0279 127.926 85.886Z" fill="#FBFBFB" stroke="#3B918C" stroke-width="1.64825" stroke-linecap="round" stroke-linejoin="round"/>
<path d="M103.441 104.855L80.1355 102.791C78.9092 102.683 77.827 103.589 77.7184 104.815L77.1751 110.951C77.0665 112.177 77.9726 113.259 79.1989 113.368L102.505 115.431C103.731 115.54 104.813 114.634 104.922 113.408L105.465 107.272C105.574 106.045 104.668 104.963 103.441 104.855Z" fill="#93D2CF"/>
<path d="M114.428 28.1874C114.428 32.207 113.236 36.1363 111.002 39.4784C108.769 42.8206 105.595 45.4255 101.881 46.9637C98.1666 48.5019 94.0799 48.9044 90.1372 48.1202C86.1944 47.336 82.5728 45.4004 79.7303 42.5581C76.8877 39.7159 74.9519 36.0946 74.1677 32.1523C73.3834 28.2099 73.7859 24.1236 75.3243 20.41C76.8627 16.6964 79.4678 13.5223 82.8103 11.2891C86.1528 9.05598 90.0825 7.86405 94.1024 7.86405C96.7755 7.85009 99.4248 8.36624 101.897 9.38264C104.369 10.399 106.616 11.8955 108.506 13.7855C110.396 15.6755 111.893 17.9214 112.909 20.3935C113.926 22.8655 114.442 25.5146 114.428 28.1874Z" fill="#FBFBFB" stroke="#3B918C" stroke-width="1.64825" stroke-linecap="round" stroke-linejoin="round"/>
<path d="M109.583 41.4022C107.678 43.6261 105.314 45.4113 102.654 46.6354C99.9941 47.8594 97.1005 48.4932 94.1722 48.4932C91.2439 48.4932 88.3503 47.8594 85.6901 46.6354C83.03 45.4113 80.6663 43.6261 78.7615 41.4022C79.0254 37.4952 80.7637 33.8342 83.6247 31.1601C86.4858 28.4861 90.2559 26.9985 94.1722 26.9985C98.0885 26.9985 101.859 28.4861 104.72 31.1601C107.581 33.8342 109.319 37.4952 109.583 41.4022Z" fill="#93D2CF"/>
<path d="M94.1017 23.9213C97.7853 23.9213 100.771 20.9354 100.771 17.2521C100.771 13.5689 97.7853 10.583 94.1017 10.583C90.4181 10.583 87.4319 13.5689 87.4319 17.2521C87.4319 20.9354 90.4181 23.9213 94.1017 23.9213Z" fill="#93D2CF"/>
<path d="M76.6723 68.9392C78.3396 68.9392 79.6912 67.5877 79.6912 65.9205C79.6912 64.2534 78.3396 62.9019 76.6723 62.9019C75.005 62.9019 73.6533 64.2534 73.6533 65.9205C73.6533 67.5877 75.005 68.9392 76.6723 68.9392Z" fill="#93D2CF"/>
<path d="M88.8896 70.0095C90.5569 70.0095 91.9085 68.658 91.9085 66.9908C91.9085 65.3237 90.5569 63.9722 88.8896 63.9722C87.2222 63.9722 85.8706 65.3237 85.8706 66.9908C85.8706 68.658 87.2222 70.0095 88.8896 70.0095Z" fill="#93D2CF"/>
<path d="M101.106 71.0979C102.773 71.0979 104.125 69.7464 104.125 68.0792C104.125 66.4121 102.773 65.0605 101.106 65.0605C99.4383 65.0605 98.0867 66.4121 98.0867 68.0792C98.0867 69.7464 99.4383 71.0979 101.106 71.0979Z" fill="#93D2CF"/>
<path d="M113.322 72.1692C114.989 72.1692 116.341 70.8177 116.341 69.1505C116.341 67.4833 114.989 66.1318 113.322 66.1318C111.655 66.1318 110.303 67.4833 110.303 69.1505C110.303 70.8177 111.655 72.1692 113.322 72.1692Z" fill="#93D2CF"/>
</svg>
