<svg width="14" height="14" viewBox="0 0 14 14" fill="none" xmlns="http://www.w3.org/2000/svg">
<g id="Chat Pinned" clip-path="url(#clip0_1572_6622)">
<path id="Ico" fill-rule="evenodd" clip-rule="evenodd" d="M11.953 6.49034L11.0538 6.49034L8.98673 8.55738L8.98673 10.7307C8.98673 10.9693 8.89194 11.1982 8.72321 11.3669L8.50959 11.5805C8.24607 11.844 7.81882 11.844 7.5553 11.5805L5.64674 9.67197L4.98335 10.3354C4.16477 11.1539 3.16684 11.7707 2.0686 12.1368C2.43468 11.0385 3.05143 10.0406 3.87001 9.22203L4.53341 8.55864L2.62481 6.65004C2.36129 6.38652 2.36129 5.95927 2.62481 5.69575L2.83843 5.48212C3.00716 5.3134 3.23601 5.2186 3.47463 5.2186L5.64549 5.2186L7.71326 3.15083L7.71326 2.25062C7.71326 2.012 7.80805 1.78315 7.97678 1.61443L8.19041 1.4008C8.45393 1.13728 8.88118 1.13728 9.1447 1.4008L12.8028 5.05891C13.0663 5.32243 13.0663 5.74968 12.8028 6.0132L12.5892 6.22682C12.4205 6.39555 12.1916 6.49034 11.953 6.49034Z" fill="#204E4C"/>
</g>
<defs>
<clipPath id="clip0_1572_6622">
<rect width="14" height="14" fill="white"/>
</clipPath>
</defs>
</svg>
