<svg width="16" height="16" viewBox="0 0 16 16" fill="none" xmlns="http://www.w3.org/2000/svg">
<g id="ph:ranking-fill">
<path id="Vector" d="M15 12.5H14.5V9C14.5 8.73478 14.3946 8.48043 14.2071 8.29289C14.0196 8.10536 13.7652 8 13.5 8H11V3.5C11 3.23478 10.8946 2.98043 10.7071 2.79289C10.5196 2.60536 10.2652 2.5 10 2.5H6C5.73478 2.5 5.48043 2.60536 5.29289 2.79289C5.10536 2.98043 5 3.23478 5 3.5V5.5H2.5C2.23478 5.5 1.98043 5.60536 1.79289 5.79289C1.60536 5.98043 1.5 6.23478 1.5 6.5V12.5H1C0.867392 12.5 0.740215 12.5527 0.646447 12.6464C0.552678 12.7402 0.5 12.8674 0.5 13C0.5 13.1326 0.552678 13.2598 0.646447 13.3536C0.740215 13.4473 0.867392 13.5 1 13.5H15C15.1326 13.5 15.2598 13.4473 15.3536 13.3536C15.4473 13.2598 15.5 13.1326 15.5 13C15.5 12.8674 15.4473 12.7402 15.3536 12.6464C15.2598 12.5527 15.1326 12.5 15 12.5ZM5 12.5H2.5V6.5H5V12.5ZM8.75 8.5C8.75 8.63261 8.69732 8.75979 8.60355 8.85355C8.50979 8.94732 8.38261 9 8.25 9C8.11739 9 7.99021 8.94732 7.89645 8.85355C7.80268 8.75979 7.75 8.63261 7.75 8.5V6.69375L7.65812 6.72437C7.59583 6.74514 7.53005 6.75343 7.46455 6.74878C7.39905 6.74412 7.33511 6.72661 7.27638 6.69725C7.21764 6.66788 7.16527 6.62723 7.12225 6.57762C7.07922 6.52802 7.04639 6.47042 7.02563 6.40812C7.00486 6.34583 6.99657 6.28005 7.00122 6.21455C7.00588 6.14905 7.02339 6.08511 7.05275 6.02638C7.08212 5.96764 7.12277 5.91527 7.17238 5.87225C7.22198 5.82922 7.27958 5.79639 7.34188 5.77563L8.09188 5.52563C8.16704 5.50057 8.24708 5.49373 8.32541 5.50568C8.40373 5.51763 8.47809 5.54802 8.54237 5.59435C8.60664 5.64068 8.65898 5.70162 8.69508 5.77214C8.73118 5.84267 8.75001 5.92077 8.75 6V8.5ZM13.5 12.5H11V9H13.5V12.5Z" fill="#3366CC"/>
</g>
</svg>
