<svg width="16" height="16" viewBox="0 0 16 16" fill="none" xmlns="http://www.w3.org/2000/svg">
<g id="ri:robot-3-line">
<path id="Vector" d="M7.33341 0.666016V1.33268H4.66675C4.13631 1.33268 3.62761 1.5434 3.25253 1.91847C2.87746 2.29354 2.66675 2.80225 2.66675 3.33268V5.33268C2.66675 6.21674 3.01794 7.06458 3.64306 7.6897C4.26818 8.31483 5.11603 8.66602 6.00008 8.66602H10.0001C10.8841 8.66602 11.732 8.31483 12.3571 7.6897C12.9822 7.06458 13.3334 6.21674 13.3334 5.33268V3.33268C13.3334 2.80225 13.1227 2.29354 12.7476 1.91847C12.3726 1.5434 11.8638 1.33268 11.3334 1.33268H8.66675V0.666016H7.33341ZM4.00008 3.33268C4.00008 3.15587 4.07032 2.9863 4.19534 2.86128C4.32037 2.73625 4.48994 2.66602 4.66675 2.66602H11.3334C11.5102 2.66602 11.6798 2.73625 11.8048 2.86128C11.9298 2.9863 12.0001 3.15587 12.0001 3.33268V5.33268C12.0001 5.86312 11.7894 6.37182 11.4143 6.7469C11.0392 7.12197 10.5305 7.33268 10.0001 7.33268H6.00008C5.46965 7.33268 4.96094 7.12197 4.58587 6.7469C4.2108 6.37182 4.00008 5.86312 4.00008 5.33268V3.33268ZM6.33341 5.99935C6.59863 5.99935 6.85298 5.89399 7.04052 5.70646C7.22806 5.51892 7.33341 5.26457 7.33341 4.99935C7.33341 4.73413 7.22806 4.47978 7.04052 4.29224C6.85298 4.10471 6.59863 3.99935 6.33341 3.99935C6.0682 3.99935 5.81384 4.10471 5.62631 4.29224C5.43877 4.47978 5.33341 4.73413 5.33341 4.99935C5.33341 5.26457 5.43877 5.51892 5.62631 5.70646C5.81384 5.89399 6.0682 5.99935 6.33341 5.99935ZM9.66675 5.99935C9.93196 5.99935 10.1863 5.89399 10.3739 5.70646C10.5614 5.51892 10.6667 5.26457 10.6667 4.99935C10.6667 4.73413 10.5614 4.47978 10.3739 4.29224C10.1863 4.10471 9.93196 3.99935 9.66675 3.99935C9.40153 3.99935 9.14718 4.10471 8.95964 4.29224C8.7721 4.47978 8.66675 4.73413 8.66675 4.99935C8.66675 5.26457 8.7721 5.51892 8.95964 5.70646C9.14718 5.89399 9.40153 5.99935 9.66675 5.99935ZM4.00008 14.666C4.00008 13.6051 4.42151 12.5877 5.17165 11.8376C5.9218 11.0874 6.93922 10.666 8.00008 10.666C9.06095 10.666 10.0784 11.0874 10.8285 11.8376C11.5787 12.5877 12.0001 13.6051 12.0001 14.666H13.3334C13.3334 13.2515 12.7715 11.895 11.7713 10.8948C10.7711 9.89458 9.41457 9.33268 8.00008 9.33268C6.58559 9.33268 5.22904 9.89458 4.22885 10.8948C3.22865 11.895 2.66675 13.2515 2.66675 14.666H4.00008Z" fill="#0086A8"/>
</g>
</svg>
