<svg width="21" height="20" viewBox="0 0 21 20" fill="none" xmlns="http://www.w3.org/2000/svg">
<g id="fi:trash-2">
<path id="Vector" d="M3 5H4.66667H18" stroke="#FF4B4B" stroke-width="1.25" stroke-linecap="round" stroke-linejoin="round"/>
<path id="Vector_2" d="M7.16602 5.00033V3.33366C7.16602 2.89163 7.34161 2.46771 7.65417 2.15515C7.96673 1.84259 8.39065 1.66699 8.83268 1.66699H12.166C12.608 1.66699 13.032 1.84259 13.3445 2.15515C13.6571 2.46771 13.8327 2.89163 13.8327 3.33366V5.00033M16.3327 5.00033V16.667C16.3327 17.109 16.1571 17.5329 15.8445 17.8455C15.532 18.1581 15.108 18.3337 14.666 18.3337H6.33268C5.89065 18.3337 5.46673 18.1581 5.15417 17.8455C4.84161 17.5329 4.66602 17.109 4.66602 16.667V5.00033H16.3327Z" stroke="#FF4B4B" stroke-width="1.25" stroke-linecap="round" stroke-linejoin="round"/>
<path id="Vector_3" d="M12.166 9.16699V14.167" stroke="#FF4B4B" stroke-width="1.25" stroke-linecap="round" stroke-linejoin="round"/>
<path id="Vector_4" d="M8.83398 9.16699V14.167" stroke="#FF4B4B" stroke-width="1.25" stroke-linecap="round" stroke-linejoin="round"/>
</g>
</svg>
