<svg width="16" height="16" viewBox="0 0 16 16" fill="none" xmlns="http://www.w3.org/2000/svg">
<path id="Vector" d="M6.42505 1.44125C7.10991 0.18625 8.89008 0.18625 9.57494 1.44125L15.7723 12.7922C16.4364 14.0083 15.5683 15.5 14.197 15.5H1.80382C0.431688 15.5 -0.436393 14.0083 0.227669 12.7922L6.42505 1.44125ZM8.79887 12.2571C8.80226 12.1486 8.7841 12.0406 8.74548 11.9394C8.70686 11.8382 8.64855 11.7459 8.57404 11.6679C8.49952 11.59 8.41031 11.528 8.3117 11.4857C8.21308 11.4434 8.10709 11.4216 8 11.4216C7.8929 11.4216 7.78691 11.4434 7.68829 11.4857C7.58968 11.528 7.50047 11.59 7.42595 11.6679C7.35144 11.7459 7.29314 11.8382 7.25451 11.9394C7.21589 12.0406 7.19773 12.1486 7.20112 12.2571C7.20769 12.4674 7.29473 12.6668 7.44383 12.8132C7.59294 12.9595 7.79239 13.0414 8 13.0414C8.2076 13.0414 8.40706 12.9595 8.55616 12.8132C8.70526 12.6668 8.7923 12.4674 8.79887 12.2571ZM8.59165 5.8905C8.57092 5.73781 8.49374 5.5988 8.37571 5.50157C8.25769 5.40435 8.10764 5.35617 7.9559 5.36678C7.80415 5.37738 7.66205 5.44599 7.55832 5.55871C7.45459 5.67144 7.39698 5.81988 7.39714 5.974L7.40034 9.62307L7.40594 9.70576C7.42667 9.85845 7.50385 9.99746 7.62188 10.0947C7.7399 10.1919 7.88995 10.2401 8.04169 10.2295C8.19344 10.2189 8.33554 10.1503 8.43927 10.0375C8.543 9.92482 8.60061 9.77638 8.60045 9.62226L8.59725 5.97238L8.59165 5.8905Z" fill="#FC9900"/>
</svg>
