<svg width="12" height="12" viewBox="0 0 12 12" fill="none" xmlns="http://www.w3.org/2000/svg">
<path id="Vector" d="M11.9258 0.61707C11.8243 0.372721 11.6301 0.178545 11.3858 0.0770702C11.2656 0.0258293 11.1365 -0.0013497 11.0058 -0.00292969H1.0058C0.740582 -0.00292969 0.486228 0.102427 0.298692 0.289964C0.111155 0.4775 0.00579834 0.731854 0.00579834 0.99707C0.00579834 1.26229 0.111155 1.51664 0.298692 1.70418C0.486228 1.89171 0.740582 1.99707 1.0058 1.99707H8.5958L0.295798 10.2871C0.20207 10.38 0.127676 10.4906 0.0769072 10.6125C0.0261385 10.7344 0 10.8651 0 10.9971C0 11.1291 0.0261385 11.2598 0.0769072 11.3816C0.127676 11.5035 0.20207 11.6141 0.295798 11.7071C0.388761 11.8008 0.499362 11.8752 0.621222 11.926C0.743081 11.9767 0.873786 12.0029 1.0058 12.0029C1.13781 12.0029 1.26852 11.9767 1.39038 11.926C1.51223 11.8752 1.62284 11.8008 1.7158 11.7071L10.0058 3.40707V10.9971C10.0058 11.2623 10.1112 11.5166 10.2987 11.7042C10.4862 11.8917 10.7406 11.9971 11.0058 11.9971C11.271 11.9971 11.5254 11.8917 11.7129 11.7042C11.9004 11.5166 12.0058 11.2623 12.0058 10.9971V0.99707C12.0042 0.866393 11.977 0.737293 11.9258 0.61707Z" fill="#FBFBFB"/>
</svg>
