<svg width="88" height="87" viewBox="0 0 88 87" fill="none" xmlns="http://www.w3.org/2000/svg">
<g id="Group 24">
<g id="Group 20">
<path id="Vector" d="M38.1106 79.4345C41.8021 72.4756 42.0127 72.3588 42.8197 71.7413C44.6263 70.7602 46.4266 71.6384 47.667 74.1055C48.0758 74.9191 48.7631 76.22 49.194 76.9964C50.4559 79.2705 53.8962 85.9194 53.8962 86.0844C53.8962 86.1675 49.5654 86.2355 44.2721 86.2355C38.9788 86.2355 34.6479 86.1616 34.6479 86.0715C34.6479 85.9815 35.2434 84.7976 35.9709 83.4409C36.6985 82.0843 37.6615 80.2814 38.1106 79.4345Z" fill="#204E4C"/>
<path id="Vector_2" d="M18.4679 49.9887C18.3268 49.8789 17.1757 49.0381 15.9099 48.1206C14.6442 47.2028 13.5845 46.4519 13.5547 46.4519C13.5252 46.4519 13.3399 46.7696 13.1433 47.1577C12.9465 47.5457 12.2897 48.7874 11.684 49.9166C9.21564 54.5172 8.611 55.6418 7.6822 57.3593C6.73391 59.1132 5.8218 60.826 3.68601 64.8661C3.10753 65.9599 2.55061 66.9706 2.44847 67.1117C2.27087 67.3568 1.06773 70.2118 0.339115 72.1163C0.133541 72.654 -0.00273132 74.0447 -0.000167847 75.581C0.00394058 77.976 0.0619431 78.2637 0.869343 79.8865C1.86384 81.885 4.34943 84.396 6.08973 85.1605C8.67696 86.2969 8.95978 86.3534 11.9235 86.3264C17.3323 86.2774 20.3252 84.5846 23.6626 79.6873C24.7516 78.0892 25.2266 77.2176 28.9777 69.9348C30.2137 67.5352 31.2166 65.2128 31.4073 65.0126C31.5991 64.8112 31.806 64.8494 32.2984 65.0585C33.0551 65.3797 33.8344 65.6459 34.6399 65.8097C35.7416 66.0338 36.937 66.2464 37.686 66.2717C38.2351 66.2902 38.3104 65.7417 37.7941 65.5539C37.7088 65.5229 37.5374 65.4256 37.1524 65.2973C36.2198 64.9763 36.7756 64.3675 37.756 64.4759C37.967 64.4992 38.1685 64.5192 38.3367 64.5273C39.7687 64.7422 40.6676 64.7468 40.6676 64.1691C40.6676 63.8077 40.3564 63.3776 39.0773 63.2441C37.4091 63.2441 36.4303 62.9875 36.6392 62.3459C36.7645 61.9609 38.3226 62.0892 39.6199 62.0892C42.2056 62.0892 42.443 62.0612 42.3146 61.2913C42.0878 60.8676 41.722 60.6777 40.1039 60.6777C38.2398 60.6777 36.7675 60.6777 37.1524 59.7794C37.3558 59.4948 38.9524 59.4971 39.7482 59.4948C40.7732 59.492 41.553 59.6578 41.9711 59.3193L42.0186 59.2824C42.2795 59.0797 42.2471 58.676 41.9572 58.5175C41.5669 58.3086 40.9031 58.2116 39.8765 58.2116C38.9893 58.2829 37.4902 58.233 37.4091 58.1112C36.8958 57.3413 38.2825 57.2453 38.8206 57.1653C39.2875 57.0958 39.5516 56.8837 39.6516 56.6213C39.8203 56.1791 39.4604 55.6168 38.9888 55.5778C38.8003 55.5623 38.5546 55.6076 38.179 55.7201C36.0566 56.3561 32.2507 55.9767 28.477 54.8621C25.9755 54.1235 20.113 51.2689 18.4679 49.9887Z" fill="#204E4C"/>
<path id="Vector_3" d="M69.5316 49.9887C69.6728 49.8789 70.8238 49.0381 72.0896 48.1206C73.3553 47.2028 74.415 46.4519 74.4448 46.4519C74.4743 46.4519 74.6596 46.7696 74.8562 47.1577C75.053 47.5457 75.7098 48.7874 76.3155 49.9166C78.7839 54.5172 79.3885 55.6418 80.3173 57.3593C81.2656 59.1132 82.1777 60.826 84.3135 64.8661C84.892 65.9599 85.4489 66.9706 85.551 67.1117C85.7286 67.3568 86.9318 70.2118 87.6604 72.1163C87.866 72.654 88.0022 74.0447 87.9997 75.581C87.9956 77.976 87.9376 78.2637 87.1302 79.8865C86.1357 81.885 83.6501 84.396 81.9098 85.1605C79.3226 86.2969 79.0397 86.3534 76.076 86.3264C70.6673 86.2774 67.6743 84.5846 64.3369 79.6873C63.2479 78.0892 62.7729 77.2176 59.0218 69.9348C57.7858 67.5352 56.7829 65.2128 56.5922 65.0126C56.4004 64.8112 56.1935 64.8494 55.7011 65.0585C54.9444 65.3797 54.1652 65.6459 53.3596 65.8097C52.2579 66.0338 51.0625 66.2464 50.3135 66.2717C49.7645 66.2902 49.6891 65.7417 50.2055 65.5539C50.2907 65.5229 50.4621 65.4256 50.8471 65.2973C51.7797 64.9763 51.2239 64.3675 50.2436 64.4759C50.0325 64.4992 49.831 64.5192 49.6628 64.5273C48.2308 64.7422 47.3319 64.7468 47.3319 64.1691C47.3319 63.8077 47.6431 63.3776 48.9222 63.2441C50.5904 63.2441 51.5693 62.9875 51.3604 62.3459C51.235 61.9609 49.677 62.0892 48.3796 62.0892C45.7939 62.0892 45.5565 62.0612 45.6849 61.2913C45.9117 60.8676 46.2775 60.6777 47.8957 60.6777C49.7597 60.6777 51.232 60.6777 50.8471 59.7794C50.6438 59.4948 49.0472 59.4971 48.2513 59.4948C47.2263 59.492 46.4465 59.6578 46.0284 59.3193L45.981 59.2824C45.72 59.0797 45.7524 58.676 46.0423 58.5175C46.4326 58.3086 47.0964 58.2116 48.123 58.2116C49.0102 58.2829 50.5093 58.233 50.5904 58.1112C51.1037 57.3413 49.7171 57.2453 49.1789 57.1653C48.712 57.0958 48.4479 56.8837 48.3479 56.6213C48.1793 56.1791 48.5391 55.6168 49.0107 55.5778C49.1992 55.5623 49.4449 55.6076 49.8205 55.7201C51.9429 56.3561 55.7488 55.9767 59.5225 54.8621C62.024 54.1235 67.8865 51.2689 69.5316 49.9887Z" fill="#204E4C"/>
<path id="Vector_4" d="M48.6453 1.03183C52.7689 3.45283 54.4914 7.86939 56.645 11.9473C57.1204 12.843 57.5962 13.7386 58.0721 14.634C58.3055 15.0732 58.539 15.5124 58.7795 15.9649C59.7211 17.7309 60.6726 19.4914 61.6307 21.2485C61.7928 21.5457 61.9549 21.843 62.1219 22.1492C63.0542 23.8518 64.0094 25.5391 64.9825 27.2189C66.6779 30.1619 68.0807 32.843 67.8315 36.3315C67.299 38.4988 66.4418 40.0496 64.65 41.4547C60.2948 44.4328 54.1528 47.3923 48.6349 47.3923C49.0199 47.0942 49.6838 46.6042 50.0043 46.1983C51.8129 43.7398 52.2479 41.8257 52.1738 38.7825C52.1679 38.7146 52.1615 38.6476 52.1543 38.5815C51.8181 35.4705 49.4246 32.7198 46.4308 31.8094C45.9542 31.6645 45.4479 31.5542 44.902 31.4767C42.2736 31.3737 40.1228 31.6922 38.0008 33.3149C36.4799 34.8865 35.4183 36.5853 35.2186 38.7799C35.2096 41.5266 35.38 43.3938 37.0162 45.6745C37.6061 46.4073 38.4092 47.0776 39.1391 47.3923C39.1391 47.0504 39.1391 47.7242 39.1391 47.3923C33.5862 46.9907 25.8788 45.0384 21.7866 41.1287C20.3493 39.3149 19.813 37.9604 19.5059 35.6454C19.6849 32.7035 21.0483 30.2447 22.4779 27.7426C22.8422 27.091 23.2058 26.4389 23.5686 25.7865C23.7449 25.4699 23.9212 25.1533 24.1029 24.8271C24.7618 23.6227 25.3723 22.3974 25.9763 21.1647C27.0425 18.997 28.1948 16.8924 29.3803 14.7888C30.3211 13.1105 31.2011 11.4115 32.0514 9.6849C35.6656 2.4133 35.6656 2.4133 39.7395 0.467527C42.7771 -0.163661 45.7847 -0.314056 48.6453 1.03183Z" fill="#204E4C"/>
</g>
</g>
</svg>
