<svg width="160" height="160" viewBox="0 0 160 160" fill="none" xmlns="http://www.w3.org/2000/svg">
<g id="Group 42">
<circle id="Ellipse 23" cx="80" cy="80" r="80" fill="#B7E1DF"/>
<circle id="Ellipse 22" cx="79.9993" cy="80" r="67.2" fill="#93D2CF"/>
<circle id="Ellipse 21" cx="80" cy="80" r="48" fill="#3B918C"/>
<g id="Group 20">
<path id="Vector" d="M76.5732 101.417C78.721 97.3678 78.8436 97.2998 79.3131 96.9406C80.3642 96.3697 81.4116 96.8807 82.1333 98.3161C82.3712 98.7895 82.7711 99.5464 83.0218 99.9981C83.756 101.321 85.7576 105.19 85.7576 105.286C85.7576 105.334 83.2378 105.374 80.1581 105.374C77.0784 105.374 74.5586 105.331 74.5586 105.278C74.5586 105.226 74.905 104.537 75.3283 103.748C75.7517 102.958 76.3119 101.909 76.5732 101.417Z" fill="#FBFBFB"/>
<path id="Vector_2" d="M65.1456 84.2846C65.0635 84.2207 64.3938 83.7315 63.6574 83.1977C62.9209 82.6637 62.3044 82.2268 62.287 82.2268C62.2699 82.2268 62.1621 82.4117 62.0477 82.6374C61.9332 82.8632 61.551 83.5856 61.1986 84.2426C59.7625 86.9194 59.4107 87.5737 58.8703 88.5729C58.3186 89.5934 57.7879 90.5899 56.5452 92.9405C56.2087 93.577 55.8846 94.165 55.8252 94.2471C55.7219 94.3897 55.0219 96.0507 54.5979 97.1588C54.4783 97.4717 54.3991 98.2808 54.4005 99.1747C54.4029 100.568 54.4367 100.736 54.9064 101.68C55.4851 102.842 56.9312 104.303 57.9438 104.748C59.4491 105.409 59.6136 105.442 61.338 105.427C64.4849 105.398 66.2263 104.413 68.168 101.564C68.8016 100.634 69.078 100.127 71.2604 95.8896C71.9796 94.4935 72.5631 93.1423 72.674 93.0258C72.7856 92.9086 72.906 92.9308 73.1925 93.0525C73.6327 93.2394 74.0861 93.3942 74.5548 93.4895C75.1958 93.6199 75.8913 93.7436 76.3271 93.7583C76.6465 93.7691 76.6904 93.45 76.3899 93.3407C76.3404 93.3227 76.2406 93.2661 76.0166 93.1914C75.474 93.0047 75.7974 92.6505 76.3678 92.7135C76.4906 92.7271 76.6078 92.7387 76.7056 92.7434C77.5389 92.8684 78.0618 92.8711 78.0618 92.535C78.0618 92.3248 77.8808 92.0745 77.1366 91.9968C76.166 91.9968 75.5965 91.8475 75.718 91.4742C75.7909 91.2502 76.6974 91.3249 77.4522 91.3249C78.9566 91.3249 79.0948 91.3086 79.0201 90.8606C78.8881 90.6141 78.6753 90.5036 77.7338 90.5036C76.6493 90.5036 75.7927 90.5036 76.0166 89.981C76.1349 89.8154 77.0639 89.8167 77.5269 89.8154C78.1233 89.8138 78.577 89.9102 78.8202 89.7133L78.8478 89.6918C78.9997 89.5739 78.9808 89.339 78.8122 89.2468C78.585 89.1253 78.1989 89.0688 77.6016 89.0688C77.0854 89.1103 76.2132 89.0813 76.166 89.0104C75.8673 88.5625 76.6741 88.5066 76.9872 88.46C77.1632 88.4339 77.2896 88.3729 77.3726 88.2917C77.6544 88.0163 77.2957 87.4832 76.9069 87.5471C76.8266 87.5602 76.7312 87.5841 76.6139 87.6192C75.379 87.9892 73.1647 87.7685 70.9691 87.12C69.5137 86.6903 66.1028 85.0294 65.1456 84.2846Z" fill="#FBFBFB"/>
<path id="Vector_3" d="M94.8554 84.2846C94.9375 84.2207 95.6072 83.7315 96.3436 83.1977C97.0801 82.6637 97.6966 82.2268 97.7139 82.2268C97.7311 82.2268 97.8389 82.4117 97.9533 82.6374C98.0678 82.8632 98.4499 83.5856 98.8023 84.2426C100.238 86.9194 100.59 87.5737 101.131 88.5729C101.682 89.5934 102.213 90.5899 103.456 92.9405C103.792 93.577 104.116 94.165 104.176 94.2471C104.279 94.3897 104.979 96.0507 105.403 97.1588C105.523 97.4717 105.602 98.2808 105.6 99.1747C105.598 100.568 105.564 100.736 105.095 101.68C104.516 102.842 103.07 104.303 102.057 104.748C100.552 105.409 100.387 105.442 98.663 105.427C95.5161 105.398 93.7747 104.413 91.833 101.564C91.1994 100.634 90.923 100.127 88.7405 95.8896C88.0214 94.4935 87.4379 93.1423 87.327 93.0258C87.2154 92.9086 87.095 92.9308 86.8085 93.0525C86.3682 93.2394 85.9149 93.3942 85.4462 93.4895C84.8052 93.6199 84.1097 93.7436 83.6739 93.7583C83.3544 93.7691 83.3106 93.45 83.611 93.3407C83.6606 93.3227 83.7603 93.2661 83.9843 93.1914C84.5269 93.0047 84.2036 92.6505 83.6332 92.7135C83.5104 92.7271 83.3932 92.7387 83.2953 92.7434C82.4621 92.8684 81.9392 92.8711 81.9392 92.535C81.9392 92.3248 82.1202 92.0745 82.8644 91.9968C83.835 91.9968 84.4045 91.8475 84.283 91.4742C84.21 91.2502 83.3035 91.3249 82.5487 91.3249C81.0443 91.3249 80.9062 91.3086 80.9809 90.8606C81.1129 90.6141 81.3257 90.5036 82.2671 90.5036C83.3517 90.5036 84.2083 90.5036 83.9843 89.981C83.866 89.8154 82.9371 89.8167 82.4741 89.8154C81.8777 89.8138 81.424 89.9102 81.1808 89.7133L81.1531 89.6918C81.0013 89.5739 81.0201 89.339 81.1888 89.2468C81.4159 89.1253 81.8021 89.0688 82.3994 89.0688C82.9156 89.1103 83.7878 89.0813 83.835 89.0104C84.1336 88.5625 83.3269 88.5066 83.0137 88.46C82.8378 88.4339 82.7114 88.3729 82.6283 88.2917C82.3466 88.0163 82.7053 87.4832 83.0941 87.5471C83.1743 87.5602 83.2698 87.5841 83.387 87.6192C84.6219 87.9892 86.8363 87.7685 89.0319 87.12C90.4873 86.6903 93.8982 85.0294 94.8554 84.2846Z" fill="#FBFBFB"/>
<path id="Vector_4" d="M82.7024 55.8003C85.1016 57.2089 86.1038 59.7785 87.3568 62.1511C87.6334 62.6723 87.9102 63.1933 88.1871 63.7143C88.3229 63.9698 88.4587 64.2254 88.5987 64.4886C89.1465 65.5161 89.7001 66.5404 90.2576 67.5627C90.3519 67.7357 90.4462 67.9086 90.5434 68.0868C91.0858 69.0774 91.6415 70.0591 92.2077 71.0364C93.1941 72.7487 94.0103 74.3086 93.8653 76.3383C93.5555 77.5993 93.0568 78.5016 92.0142 79.3191C89.4804 81.0518 85.9068 82.7737 82.6964 82.7737C82.9204 82.6003 83.3066 82.3152 83.4931 82.079C84.5454 80.6486 84.7985 79.5349 84.7554 77.7643C84.5925 75.8728 83.1297 74.1861 81.3014 73.6744C81.0572 73.6061 80.7995 73.5527 80.5245 73.5137C78.9953 73.4538 77.7438 73.6391 76.5092 74.5832C75.6243 75.4976 75.0067 76.486 74.8905 77.7628C74.8852 79.3609 74.9844 80.4473 75.9364 81.7743C76.2796 82.2006 76.7469 82.5906 77.1715 82.7737C77.1715 82.5748 77.1715 82.9668 77.1715 82.7737C73.9408 82.54 69.4564 81.4042 67.0755 79.1294C66.2393 78.0741 65.9272 77.286 65.7485 75.9391C65.8527 74.2275 66.646 72.7969 67.4777 71.3411C67.6897 70.962 67.9012 70.5826 68.1123 70.203C68.2149 70.0188 68.3175 69.8346 68.4232 69.6448C68.8065 68.9441 69.1618 68.2312 69.5132 67.514C70.1335 66.2528 70.8039 65.0282 71.4937 63.8044C72.041 62.8279 72.553 61.8394 73.0478 60.8348C75.1506 56.6041 75.1506 56.6041 77.5209 55.472C79.2882 55.1047 81.0381 55.0172 82.7024 55.8003Z" fill="#FBFBFB"/>
</g>
</g>
</svg>
