<svg width="40" height="40" viewBox="0 0 40 40" fill="none" xmlns="http://www.w3.org/2000/svg">
<g id="codicon:robot">
<g id="Group">
<path id="Vector" fill-rule="evenodd" clip-rule="evenodd" d="M20 20.0001C20 21.3261 19.4732 22.5979 18.5355 23.5356C17.5979 24.4733 16.3261 25.0001 15 25.0001C13.6739 25.0001 12.4021 24.4733 11.4645 23.5356C10.5268 22.5979 10 21.3261 10 20.0001C10 18.674 10.5268 17.4022 11.4645 16.4645C12.4021 15.5268 13.6739 15.0001 15 15.0001C16.3261 15.0001 17.5979 15.5268 18.5355 16.4645C19.4732 17.4022 20 18.674 20 20.0001ZM12.5 20.0001C12.5 20.6631 12.7634 21.299 13.2322 21.7678C13.7011 22.2367 14.337 22.5001 15 22.5001C15.663 22.5001 16.2989 22.2367 16.7678 21.7678C17.2366 21.299 17.5 20.6631 17.5 20.0001C17.5 19.337 17.2366 18.7011 16.7678 18.2323C16.2989 17.7635 15.663 17.5001 15 17.5001C14.337 17.5001 13.7011 17.7635 13.2322 18.2323C12.7634 18.7011 12.5 19.337 12.5 20.0001ZM20 20.0001C20 21.3261 20.5268 22.5979 21.4645 23.5356C22.4021 24.4733 23.6739 25.0001 25 25.0001C26.3261 25.0001 27.5979 24.4733 28.5355 23.5356C29.4732 22.5979 30 21.3261 30 20.0001C30 18.674 29.4732 17.4022 28.5355 16.4645C27.5979 15.5268 26.3261 15.0001 25 15.0001C23.6739 15.0001 22.4021 15.5268 21.4645 16.4645C20.5268 17.4022 20 18.674 20 20.0001ZM27.5 20.0001C27.5 20.6631 27.2366 21.299 26.7678 21.7678C26.2989 22.2367 25.663 22.5001 25 22.5001C24.337 22.5001 23.7011 22.2367 23.2322 21.7678C22.7634 21.299 22.5 20.6631 22.5 20.0001C22.5 19.337 22.7634 18.7011 23.2322 18.2323C23.7011 17.7635 24.337 17.5001 25 17.5001C25.663 17.5001 26.2989 17.7635 26.7678 18.2323C27.2366 18.7011 27.5 19.337 27.5 20.0001ZM21.275 28.1276C22.5736 27.8606 23.7648 27.2172 24.7 26.2776L26.45 28.0526C24.732 29.7527 22.4169 30.7128 20 30.7276C18.7811 30.7159 17.5759 30.4697 16.45 30.0026C15.3364 29.5495 14.3248 28.878 13.475 28.0276L15.225 26.2526C16.0068 27.0299 16.9665 27.6047 18.0208 27.9271C19.0751 28.2495 20.1921 28.3097 21.275 28.1026V28.1276Z" fill="#333333"/>
<path id="Vector_2" fill-rule="evenodd" clip-rule="evenodd" d="M23.75 3.75005C23.7504 4.52586 23.5102 5.28271 23.0624 5.91628C22.6147 6.54984 21.9814 7.02894 21.25 7.28755V7.50005H27.5C29.4891 7.50005 31.3968 8.29023 32.8033 9.69675C34.2098 11.1033 35 13.0109 35 15V17.5L37.5 20V25L35 27.5V30C35 31.9892 34.2098 33.8968 32.8033 35.3034C31.3968 36.7099 29.4891 37.5 27.5 37.5H12.5C10.5109 37.5 8.60322 36.7099 7.1967 35.3034C5.79018 33.8968 5 31.9892 5 30V27.5L2.5 25V20L5 17.5V15C5 13.0109 5.79018 11.1033 7.1967 9.69675C8.60322 8.29023 10.5109 7.50005 12.5 7.50005H18.75V7.28755C18.1019 7.05841 17.5293 6.65554 17.0946 6.12296C16.66 5.59038 16.3802 4.94858 16.2856 4.2677C16.1911 3.58682 16.2855 2.89305 16.5586 2.26222C16.8317 1.63138 17.273 1.08775 17.8341 0.690721C18.3953 0.293696 19.0548 0.0585578 19.7406 0.0110006C20.4263 -0.0365567 21.112 0.105297 21.7226 0.421061C22.3332 0.736825 22.8452 1.21435 23.2028 1.80145C23.5603 2.38855 23.7496 3.06264 23.75 3.75005ZM12.5 10C11.1739 10 9.90215 10.5268 8.96447 11.4645C8.02678 12.4022 7.5 13.674 7.5 15V30C7.5 31.3261 8.02678 32.5979 8.96447 33.5356C9.90215 34.4733 11.1739 35 12.5 35H27.5C28.8261 35 30.0979 34.4733 31.0355 33.5356C31.9732 32.5979 32.5 31.3261 32.5 30V15C32.5 13.674 31.9732 12.4022 31.0355 11.4645C30.0979 10.5268 28.8261 10 27.5 10H12.5Z" fill="#333333"/>
</g>
</g>
</svg>
