<svg width="48" height="48" viewBox="0 0 48 48" fill="none" xmlns="http://www.w3.org/2000/svg">
<g id="mage:robot">
<path id="Vector" d="M19.8974 25.5385C19.0482 25.5385 18.359 24.8492 18.359 24V21.9487C18.359 21.0995 19.0482 20.4103 19.8974 20.4103C20.7467 20.4103 21.4359 21.0995 21.4359 21.9487V24C21.4359 24.8492 20.7467 25.5385 19.8974 25.5385ZM44 23.4831V28.6215C44 31.4462 41.7026 33.7436 38.8779 33.7436H38.359C38.3056 33.7436 38.2564 33.7292 38.2031 33.7272C37.4523 39.5138 32.5046 44 26.5169 44H23.9979C23.1487 44 22.4595 43.3108 22.4595 42.4615C22.4595 41.6123 23.1487 40.9231 23.9979 40.9231H26.5169C29.2041 40.9231 31.5795 39.6759 33.1815 37.76C32.8636 37.8154 32.5395 37.8462 32.2051 37.8462H15.7949C13.1938 37.8462 11.0195 36.0677 10.3713 33.6677C10.1354 33.7169 9.89128 33.7436 9.64103 33.7436H9.12205C6.29744 33.7436 4 31.4462 4 28.6215V23.4831C4 20.9826 5.80308 18.9026 8.17641 18.4554C8.90872 10.3631 15.721 4 24 4C32.279 4 39.0913 10.3631 39.8236 18.4554C42.1969 18.9026 44 20.9826 44 23.4831ZM10.1538 21.9487C10.1538 21.6656 9.9241 21.4359 9.64103 21.4359H9.12205C7.99385 21.4359 7.07692 22.3528 7.07692 23.4831V28.6215C7.07692 29.7497 7.99385 30.6667 9.12205 30.6667H9.64103C9.9241 30.6667 10.1538 30.4369 10.1538 30.1538V21.9487ZM13.3374 12.7918C14.0841 12.4267 14.9108 12.2051 15.7949 12.2051H32.2051C33.0913 12.2051 33.9179 12.4287 34.6626 12.7918C32.361 9.34974 28.441 7.07692 24 7.07692C19.559 7.07692 15.6369 9.34974 13.3374 12.7918ZM32.2051 34.7692C33.6185 34.7692 34.7692 33.6185 34.7692 32.2051V17.8462C34.7692 16.4328 33.6185 15.2821 32.2051 15.2821H15.7949C14.3815 15.2821 13.2308 16.4328 13.2308 17.8462V32.2051C13.2308 33.6185 14.3815 34.7692 15.7949 34.7692H32.2051ZM40.9231 23.4831C40.9231 22.3549 40.0062 21.4359 38.8779 21.4359H38.359C38.0759 21.4359 37.8462 21.6656 37.8462 21.9487V30.1538C37.8462 30.4369 38.0759 30.6667 38.359 30.6667H38.8779C40.0062 30.6667 40.9231 29.7497 40.9231 28.6215V23.4831ZM28.1026 20.4103C27.2533 20.4103 26.5641 21.0995 26.5641 21.9487V24C26.5641 24.8492 27.2533 25.5385 28.1026 25.5385C28.9518 25.5385 29.641 24.8492 29.641 24V21.9487C29.641 21.0995 28.9518 20.4103 28.1026 20.4103ZM26.0513 28.6154H21.9487C21.0995 28.6154 20.4103 29.3046 20.4103 30.1538C20.4103 31.0031 21.0995 31.6923 21.9487 31.6923H26.0513C26.9005 31.6923 27.5897 31.0031 27.5897 30.1538C27.5897 29.3046 26.9005 28.6154 26.0513 28.6154Z" fill="#333333"/>
</g>
</svg>
