<svg width="41" height="41" viewBox="0 0 41 41" fill="none" xmlns="http://www.w3.org/2000/svg">
<g id="mage:robot">
<g id="Group">
<path id="Vector" d="M24.8258 7.24099H15.8058C14.7154 7.24055 13.6356 7.45497 12.6281 7.87199C11.6206 8.28901 10.7051 8.90046 9.93405 9.67141C9.16294 10.4424 8.55131 11.3577 8.13408 12.3651C7.71686 13.3725 7.50222 14.4523 7.50244 15.5427V24.5627C7.502 25.6532 7.71648 26.7331 8.1336 27.7407C8.55073 28.7483 9.16233 29.6639 9.93346 30.435C10.7046 31.2061 11.6201 31.8177 12.6277 32.2348C13.6353 32.652 14.7152 32.8664 15.8058 32.866H24.8258C25.9163 32.8664 26.9962 32.652 28.0038 32.2348C29.0115 31.8177 29.927 31.2061 30.6981 30.435C31.4692 29.6639 32.0808 28.7483 32.498 27.7407C32.9151 26.7331 33.1295 25.6532 33.1291 24.5627V15.5427C33.1295 14.4521 32.9151 13.3722 32.498 12.3646C32.0808 11.357 31.4692 10.4415 30.6981 9.67033C29.927 8.89921 29.0115 8.28761 28.0038 7.87048C26.9962 7.45335 25.9163 7.23888 24.8258 7.23932V7.24099Z" stroke="#333333" stroke-width="2.5"/>
<path id="Vector_2" d="M32.9919 26.0327H35.6903C36.1433 26.0327 36.5779 25.8527 36.8982 25.5323C37.2186 25.2119 37.3986 24.7774 37.3986 24.3243V15.7827C37.3986 15.3296 37.2186 14.8951 36.8982 14.5747C36.5779 14.2543 36.1433 14.0743 35.6903 14.0743H32.9903M7.64027 26.0327H4.94027C4.71593 26.0327 4.49378 25.9885 4.28652 25.9026C4.07925 25.8168 3.89093 25.6909 3.73229 25.5323C3.57366 25.3737 3.44782 25.1854 3.36197 24.9781C3.27612 24.7708 3.23193 24.5487 3.23193 24.3243V15.7827C3.23193 15.3296 3.41192 14.8951 3.73229 14.5747C4.05267 14.2543 4.48719 14.0743 4.94027 14.0743H7.64027" stroke="#333333" stroke-width="2.5"/>
<path id="Vector_3" d="M4.92334 14.0743V7.24097M35.69 14.0743L35.6733 7.24097M15.1733 14.6576V19.1543M25.4233 14.6576V19.1543M16.8817 26.0326H23.715" stroke="#333333" stroke-width="2.5" stroke-linecap="round" stroke-linejoin="round"/>
</g>
</g>
</svg>
