<svg width="12" height="13" viewBox="0 0 12 13" fill="none" xmlns="http://www.w3.org/2000/svg">
<g id="Chat Pinned" clip-path="url(#clip0_1572_6459)">
<path id="Ico" d="M9.47473 6.06336L9.47473 5.56336H9.26763L9.12118 5.7098L9.47473 6.06336ZM10.2457 6.06336L10.2457 5.56336L10.2457 5.56336L10.2457 6.06336ZM7.70278 7.83532L7.34922 7.48176L7.20278 7.62821V7.83532H7.70278ZM7.70278 9.69782H7.20278H7.70278ZM6.47583 10.4262L6.12228 10.7798L6.47583 10.4262ZM4.83993 8.79033L5.19348 8.43678L4.83993 8.08322L4.48637 8.43678L4.83993 8.79033ZM1.77266 10.9033L1.29832 10.7452L0.982095 11.6939L1.93078 11.3776L1.77266 10.9033ZM3.88564 7.83604L4.23919 8.1896L4.59274 7.83604L4.23919 7.48249L3.88564 7.83604ZM2.2497 6.2001L1.89614 6.55365L2.2497 6.2001ZM2.2497 5.38214L1.89614 5.02859L2.2497 5.38214ZM2.4328 5.19903L2.78636 5.55259L2.4328 5.19903ZM2.97811 4.97316L2.97811 4.47316L2.97811 4.47316L2.97811 4.97316ZM4.8392 4.97316L4.8392 5.47316L5.04631 5.47316L5.19275 5.32671L4.8392 4.97316ZM6.61165 3.20071L6.9652 3.55427L7.11165 3.40782L7.11165 3.20071H6.61165ZM6.61165 2.42931L6.11165 2.42931L6.11165 2.42931H6.61165ZM6.83752 1.884L6.48397 1.53045L6.48397 1.53045L6.83752 1.884ZM7.02063 1.7009L7.37418 2.05445L7.37418 2.05445L7.02063 1.7009ZM7.83859 1.7009L8.19214 1.34734L7.83859 1.7009ZM10.9741 4.83642L10.6206 5.18997L10.9741 4.83642ZM9.47473 6.56336H10.2457L10.2457 5.56336H9.47473L9.47473 6.56336ZM8.05633 8.18887L9.82829 6.41691L9.12118 5.7098L7.34922 7.48176L8.05633 8.18887ZM8.20278 9.69782V7.83532H7.20278V9.69782H8.20278ZM7.83045 10.5967C8.06885 10.3583 8.20278 10.035 8.20278 9.69782H7.20278C7.20278 9.76974 7.1742 9.83872 7.12335 9.88958L7.83045 10.5967ZM7.64735 10.7798L7.83045 10.5967L7.12335 9.88958L6.94024 10.0727L7.64735 10.7798ZM6.12228 10.7798C6.54342 11.2009 7.22621 11.2009 7.64735 10.7798L6.94024 10.0727C6.90963 10.1033 6.86 10.1033 6.82939 10.0727L6.12228 10.7798ZM4.48637 9.14388L6.12228 10.7798L6.82939 10.0727L5.19348 8.43678L4.48637 9.14388ZM4.48637 8.43678L3.91747 9.00568L4.62458 9.71279L5.19348 9.14388L4.48637 8.43678ZM3.91747 9.00568C3.27072 9.65243 2.48226 10.1397 1.61455 10.429L1.93078 11.3776C2.94577 11.0393 3.86805 10.4693 4.62458 9.71279L3.91747 9.00568ZM2.24701 11.0614C2.53624 10.1937 3.02354 9.40525 3.67029 8.7585L2.96318 8.05139C2.20665 8.80792 1.63665 9.7302 1.29832 10.7452L2.24701 11.0614ZM3.67029 8.7585L4.23919 8.1896L3.53208 7.48249L2.96318 8.05139L3.67029 8.7585ZM1.89614 6.55365L3.53208 8.1896L4.23919 7.48249L2.60325 5.84655L1.89614 6.55365ZM1.89614 5.02859C1.47501 5.44972 1.47501 6.13252 1.89614 6.55365L2.60325 5.84655C2.57264 5.81594 2.57264 5.76631 2.60325 5.73569L1.89614 5.02859ZM2.07925 4.84548L1.89614 5.02859L2.60325 5.73569L2.78636 5.55259L2.07925 4.84548ZM2.97811 4.47316C2.64097 4.47316 2.31764 4.60709 2.07925 4.84548L2.78636 5.55259C2.83721 5.50173 2.90619 5.47316 2.97811 5.47316L2.97811 4.47316ZM4.8392 4.47316L2.97811 4.47316L2.97811 5.47316L4.8392 5.47316L4.8392 4.47316ZM6.25809 2.84716L4.48565 4.61961L5.19275 5.32671L6.9652 3.55427L6.25809 2.84716ZM6.11165 2.42931L6.11165 3.20071L7.11165 3.20071V2.42931H6.11165ZM6.48397 1.53045C6.24558 1.76884 6.11165 2.09217 6.11165 2.42931L7.11165 2.42931C7.11165 2.35739 7.14022 2.28841 7.19108 2.23756L6.48397 1.53045ZM6.66708 1.34734L6.48397 1.53045L7.19108 2.23756L7.37418 2.05445L6.66708 1.34734ZM8.19214 1.34734C7.77101 0.926206 7.08821 0.926206 6.66708 1.34734L7.37418 2.05445C7.40479 2.02384 7.45443 2.02384 7.48504 2.05445L8.19214 1.34734ZM11.3277 4.48286L8.19214 1.34734L7.48504 2.05445L10.6206 5.18997L11.3277 4.48286ZM11.3277 6.00793C11.7488 5.58679 11.7488 4.904 11.3277 4.48286L10.6206 5.18997C10.6512 5.22058 10.6512 5.27021 10.6206 5.30082L11.3277 6.00793ZM11.1446 6.19104L11.3277 6.00793L10.6206 5.30082L10.4375 5.48393L11.1446 6.19104ZM10.2457 6.56336C10.5828 6.56336 10.9062 6.42943 11.1446 6.19104L10.4375 5.48393C10.3866 5.53479 10.3176 5.56336 10.2457 5.56336L10.2457 6.56336Z" fill="#666666"/>
</g>
<defs>
<clipPath id="clip0_1572_6459">
<rect width="12" height="12" fill="white" transform="translate(0 0.5)"/>
</clipPath>
</defs>
</svg>
