<svg width="19" height="20" viewBox="0 0 19 20" fill="none" xmlns="http://www.w3.org/2000/svg">
<g id="Check mark ">
<path id="Ico" fill-rule="evenodd" clip-rule="evenodd" d="M12.9741 5.36854C13.1775 5.10697 13.1304 4.73001 12.8688 4.52656C12.6073 4.32312 12.2303 4.37024 12.0269 4.63181L5.44406 13.0954L2.92467 10.5759C2.69036 10.3415 2.31046 10.3415 2.07614 10.5758C1.84182 10.8101 1.84181 11.19 2.07611 11.4244L5.07611 14.4245C5.1978 14.5462 5.36589 14.6098 5.53766 14.5991C5.70943 14.5884 5.86834 14.5045 5.974 14.3686L12.9741 5.36854ZM17.6409 5.36862C17.8443 5.10705 17.7972 4.73008 17.5356 4.52664C17.2741 4.3232 16.8971 4.37032 16.6937 4.63189L10.1108 13.0955L9.59119 12.5759C9.35686 12.3416 8.97696 12.3416 8.74266 12.576C8.50835 12.8103 8.50837 13.1902 8.7427 13.4245L9.74294 14.4246C9.86463 14.5463 10.0327 14.6099 10.2045 14.5992C10.3762 14.5885 10.5351 14.5046 10.6408 14.3687L17.6409 5.36862Z" fill="#999999"/>
</g>
</svg>
