<svg width="40" height="40" viewBox="0 0 40 40" fill="none" xmlns="http://www.w3.org/2000/svg">
<g id="mdi:robot">
<path id="Vector" d="M20.0003 0.333008C20.8844 0.333008 21.7322 0.684197 22.3573 1.30932C22.9825 1.93444 23.3337 2.78229 23.3337 3.66634C23.3337 4.89967 22.667 5.98301 21.667 6.54967V8.66634H23.3337C26.4279 8.66634 29.3953 9.8955 31.5832 12.0834C33.7712 14.2714 35.0003 17.2388 35.0003 20.333H36.667C37.109 20.333 37.5329 20.5086 37.8455 20.8212C38.1581 21.1337 38.3337 21.5576 38.3337 21.9997V26.9997C38.3337 27.4417 38.1581 27.8656 37.8455 28.1782C37.5329 28.4907 37.109 28.6663 36.667 28.6663H35.0003V30.333C35.0003 31.2171 34.6491 32.0649 34.024 32.69C33.3989 33.3152 32.551 33.6663 31.667 33.6663H8.33366C7.4496 33.6663 6.60176 33.3152 5.97664 32.69C5.35152 32.0649 5.00033 31.2171 5.00033 30.333V28.6663H3.33366C2.89163 28.6663 2.46771 28.4907 2.15515 28.1782C1.84259 27.8656 1.66699 27.4417 1.66699 26.9997V21.9997C1.66699 21.5576 1.84259 21.1337 2.15515 20.8212C2.46771 20.5086 2.89163 20.333 3.33366 20.333H5.00033C5.00033 17.2388 6.22949 14.2714 8.41741 12.0834C10.6053 9.8955 13.5728 8.66634 16.667 8.66634H18.3337V6.54967C17.3337 5.98301 16.667 4.89967 16.667 3.66634C16.667 2.78229 17.0182 1.93444 17.6433 1.30932C18.2684 0.684197 19.1163 0.333008 20.0003 0.333008ZM12.5003 18.6663C11.3953 18.6663 10.3354 19.1053 9.55405 19.8867C8.77265 20.6681 8.33366 21.7279 8.33366 22.833C8.33366 23.9381 8.77265 24.9979 9.55405 25.7793C10.3354 26.5607 11.3953 26.9997 12.5003 26.9997C13.6054 26.9997 14.6652 26.5607 15.4466 25.7793C16.228 24.9979 16.667 23.9381 16.667 22.833C16.667 21.7279 16.228 20.6681 15.4466 19.8867C14.6652 19.1053 13.6054 18.6663 12.5003 18.6663ZM27.5003 18.6663C26.3953 18.6663 25.3354 19.1053 24.554 19.8867C23.7726 20.6681 23.3337 21.7279 23.3337 22.833C23.3337 23.9381 23.7726 24.9979 24.554 25.7793C25.3354 26.5607 26.3953 26.9997 27.5003 26.9997C28.6054 26.9997 29.6652 26.5607 30.4466 25.7793C31.228 24.9979 31.667 23.9381 31.667 22.833C31.667 21.7279 31.228 20.6681 30.4466 19.8867C29.6652 19.1053 28.6054 18.6663 27.5003 18.6663Z" fill="#B3B3B3"/>
</g>
</svg>
