<svg width="25" height="25" viewBox="0 0 25 25" fill="none" xmlns="http://www.w3.org/2000/svg">
<g id="fi:bell">
<path id="Vector" d="M18.5 8.24902C18.5 6.65772 17.8679 5.1316 16.7426 4.00638C15.6174 2.88116 14.0913 2.24902 12.5 2.24902C10.9087 2.24902 9.38258 2.88116 8.25736 4.00638C7.13214 5.1316 6.5 6.65772 6.5 8.24902C6.5 15.249 3.5 17.249 3.5 17.249H21.5C21.5 17.249 18.5 15.249 18.5 8.24902Z" stroke="#4D4D4D" stroke-width="1.8" stroke-linecap="round" stroke-linejoin="round"/>
<path id="Vector_2" d="M14.23 21.25C14.0542 21.5531 13.8019 21.8047 13.4982 21.9795C13.1946 22.1544 12.8504 22.2465 12.5 22.2465C12.1496 22.2465 11.8054 22.1544 11.5018 21.9795C11.1982 21.8047 10.9458 21.5531 10.77 21.25" stroke="#4D4D4D" stroke-width="1.8" stroke-linecap="round" stroke-linejoin="round"/>
</g>
</svg>
