<svg width="16" height="16" viewBox="0 0 16 16" fill="none" xmlns="http://www.w3.org/2000/svg">
<g id="ri:robot-3-line">
<path id="Vector" d="M7.33342 0.666504V1.33317H4.66675C4.13632 1.33317 3.62761 1.54388 3.25253 1.91896C2.87746 2.29403 2.66675 2.80274 2.66675 3.33317V5.33317C2.66675 6.21723 3.01794 7.06507 3.64306 7.69019C4.26818 8.31531 5.11603 8.6665 6.00008 8.6665H10.0001C10.8841 8.6665 11.732 8.31531 12.3571 7.69019C12.9822 7.06507 13.3334 6.21723 13.3334 5.33317V3.33317C13.3334 2.80274 13.1227 2.29403 12.7476 1.91896C12.3726 1.54388 11.8638 1.33317 11.3334 1.33317H8.66675V0.666504H7.33342ZM4.00008 3.33317C4.00008 3.15636 4.07032 2.98679 4.19534 2.86177C4.32037 2.73674 4.48994 2.6665 4.66675 2.6665H11.3334C11.5102 2.6665 11.6798 2.73674 11.8048 2.86177C11.9298 2.98679 12.0001 3.15636 12.0001 3.33317V5.33317C12.0001 5.8636 11.7894 6.37231 11.4143 6.74738C11.0392 7.12246 10.5305 7.33317 10.0001 7.33317H6.00008C5.46965 7.33317 4.96094 7.12246 4.58587 6.74738C4.2108 6.37231 4.00008 5.8636 4.00008 5.33317V3.33317ZM6.33341 5.99984C6.59863 5.99984 6.85299 5.89448 7.04052 5.70694C7.22806 5.51941 7.33342 5.26505 7.33342 4.99984C7.33342 4.73462 7.22806 4.48027 7.04052 4.29273C6.85299 4.10519 6.59863 3.99984 6.33341 3.99984C6.0682 3.99984 5.81384 4.10519 5.62631 4.29273C5.43877 4.48027 5.33341 4.73462 5.33341 4.99984C5.33341 5.26505 5.43877 5.51941 5.62631 5.70694C5.81384 5.89448 6.0682 5.99984 6.33341 5.99984ZM9.66675 5.99984C9.93196 5.99984 10.1863 5.89448 10.3739 5.70694C10.5614 5.51941 10.6667 5.26505 10.6667 4.99984C10.6667 4.73462 10.5614 4.48027 10.3739 4.29273C10.1863 4.10519 9.93196 3.99984 9.66675 3.99984C9.40153 3.99984 9.14718 4.10519 8.95964 4.29273C8.7721 4.48027 8.66675 4.73462 8.66675 4.99984C8.66675 5.26505 8.7721 5.51941 8.95964 5.70694C9.14718 5.89448 9.40153 5.99984 9.66675 5.99984ZM4.00008 14.6665C4.00008 13.6056 4.42151 12.5882 5.17165 11.8381C5.9218 11.0879 6.93922 10.6665 8.00008 10.6665C9.06095 10.6665 10.0784 11.0879 10.8285 11.8381C11.5787 12.5882 12.0001 13.6056 12.0001 14.6665H13.3334C13.3334 13.252 12.7715 11.8955 11.7713 10.8953C10.7711 9.89507 9.41457 9.33317 8.00008 9.33317C6.58559 9.33317 5.22904 9.89507 4.22885 10.8953C3.22865 11.8955 2.66675 13.252 2.66675 14.6665H4.00008Z" fill="#666666"/>
</g>
</svg>
