<svg width="16" height="16" viewBox="0 0 16 16" fill="none" xmlns="http://www.w3.org/2000/svg">
<g id="wpf:online">
<path id="Vector" d="M12.4805 2.4996C12.3018 2.51352 12.1311 2.57916 11.989 2.68851C11.847 2.79787 11.7399 2.9462 11.6808 3.11541C11.6217 3.28462 11.6131 3.46739 11.6561 3.64139C11.6991 3.81539 11.7919 3.97311 11.923 4.09529C12.4362 4.60747 12.8432 5.21605 13.1204 5.88604C13.3976 6.55603 13.5397 7.27421 13.5384 7.99929C13.5393 8.72432 13.3971 9.4424 13.1199 10.1123C12.8427 10.7823 12.436 11.3909 11.923 11.9033C11.8339 11.9884 11.7626 12.0905 11.7135 12.2035C11.6644 12.3166 11.6384 12.4383 11.6369 12.5615C11.6355 12.6848 11.6588 12.8071 11.7053 12.9212C11.7518 13.0354 11.8206 13.1391 11.9078 13.2262C11.9949 13.3134 12.0986 13.3822 12.2128 13.4287C12.3269 13.4752 12.4492 13.4985 12.5724 13.4971C12.6957 13.4956 12.8174 13.4696 12.9305 13.4205C13.0435 13.3713 13.1456 13.3001 13.2307 13.211C14.6102 11.8273 15.3849 9.95316 15.3849 7.99929C15.3849 6.04543 14.6102 4.17126 13.2307 2.7876C13.1463 2.69841 13.045 2.62694 12.9327 2.57738C12.8204 2.52782 12.6993 2.50117 12.5765 2.49898C12.5446 2.49773 12.5125 2.49773 12.4805 2.49898V2.4996ZM3.30762 2.51806C3.10305 2.54519 2.91347 2.64009 2.76916 2.7876C1.38965 4.17126 0.61499 6.04543 0.61499 7.99929C0.61499 9.95316 1.38965 11.8273 2.76916 13.211C2.85429 13.3001 2.95637 13.3713 3.06941 13.4205C3.18245 13.4696 3.30417 13.4956 3.42741 13.4971C3.55066 13.4985 3.67295 13.4752 3.78709 13.4287C3.90123 13.3822 4.00492 13.3134 4.09208 13.2262C4.17923 13.1391 4.24809 13.0354 4.2946 12.9212C4.34111 12.8071 4.36434 12.6848 4.36292 12.5615C4.3615 12.4383 4.33547 12.3166 4.28634 12.2035C4.23721 12.0905 4.16599 11.9884 4.07685 11.9033C3.56361 11.3911 3.15668 10.7825 2.87946 10.1125C2.60223 9.44255 2.46018 8.72437 2.46147 7.99929C2.46051 7.27426 2.60272 6.55618 2.87993 5.88623C3.15713 5.21629 3.56389 4.60767 4.07685 4.09529C4.21639 3.95978 4.30956 3.78365 4.34305 3.59204C4.37655 3.40044 4.34866 3.20315 4.26336 3.02833C4.17807 2.85352 4.03974 2.71011 3.8681 2.61859C3.69647 2.52706 3.50031 2.49148 3.30762 2.51806ZM5.65408 4.55683C5.45169 4.57859 5.26217 4.66665 5.11501 4.80729C4.668 5.21041 4.31044 5.70274 4.06538 6.25253C3.82033 6.80232 3.69321 7.39736 3.69224 7.99929C3.69224 9.2596 4.22762 10.4054 5.09593 11.1919C5.18563 11.274 5.29062 11.3376 5.4049 11.3791C5.51918 11.4205 5.64052 11.4391 5.76197 11.4337C5.88343 11.4283 6.00264 11.3991 6.11279 11.3476C6.22293 11.2961 6.32186 11.2235 6.40393 11.1338C6.486 11.0441 6.54959 10.9391 6.59108 10.8248C6.63257 10.7105 6.65115 10.5892 6.64575 10.4677C6.64035 10.3463 6.61108 10.227 6.55961 10.1169C6.50814 10.0067 6.43548 9.90782 6.34578 9.82575C6.09046 9.5951 5.8866 9.31325 5.74748 8.99855C5.60837 8.68385 5.53713 8.34337 5.53839 7.99929C5.53712 7.65507 5.60842 7.31444 5.74764 6.99963C5.88686 6.68481 6.09088 6.40288 6.34639 6.17221C6.49387 6.04392 6.59681 5.87212 6.64038 5.68156C6.68396 5.49101 6.66591 5.29154 6.58886 5.1119C6.5118 4.93226 6.3797 4.78172 6.2116 4.68196C6.0435 4.58221 5.84868 4.53839 5.65408 4.55683ZM10.2116 4.55683C10.0286 4.56692 9.85264 4.6313 9.70631 4.74176C9.55997 4.85222 9.44985 5.00376 9.38997 5.17705C9.3301 5.35034 9.32318 5.53754 9.37011 5.71478C9.41704 5.89201 9.51568 6.05126 9.65347 6.17221C9.90898 6.40288 10.113 6.68481 10.2522 6.99963C10.3914 7.31444 10.4627 7.65507 10.4615 7.99929C10.4627 8.34351 10.3914 8.68414 10.2522 8.99896C10.113 9.31377 9.90898 9.5957 9.65347 9.82637C9.55062 9.90319 9.46492 10.0006 9.40184 10.1124C9.33877 10.2242 9.29972 10.348 9.28717 10.4757C9.27462 10.6035 9.28887 10.7325 9.32898 10.8544C9.3691 10.9763 9.43421 11.0886 9.52016 11.1839C9.6061 11.2793 9.71099 11.3557 9.82813 11.4082C9.94526 11.4607 10.0721 11.4883 10.2004 11.489C10.3288 11.4898 10.4559 11.4637 10.5737 11.4126C10.6914 11.3614 10.7972 11.2863 10.8842 11.1919C11.3314 10.7888 11.6892 10.2964 11.9343 9.74647C12.1795 9.19656 12.3067 8.60137 12.3076 7.99929C12.3099 7.39856 12.1862 6.80404 11.9444 6.25411C11.7026 5.70418 11.3481 5.21109 10.9039 4.80668C10.8118 4.71977 10.7029 4.65275 10.5838 4.60977C10.4647 4.56679 10.338 4.54877 10.2116 4.55683ZM7.99993 6.88421C7.77942 6.88434 7.56389 6.94984 7.38059 7.07244C7.1973 7.19504 7.05448 7.36923 6.97017 7.573C6.88587 7.77676 6.86387 8.00095 6.90697 8.21721C6.95006 8.43347 7.05631 8.6321 7.21228 8.78799C7.36826 8.94387 7.56694 9.05001 7.78323 9.09299C7.99952 9.13596 8.22369 9.11384 8.42741 9.02943C8.63113 8.94501 8.80524 8.80209 8.92774 8.61873C9.05024 8.43537 9.11562 8.21981 9.11562 7.99929C9.11587 7.85271 9.08717 7.70752 9.03119 7.57205C8.97521 7.43657 8.89304 7.31349 8.78939 7.20984C8.68574 7.10619 8.56265 7.02401 8.42717 6.96803C8.2917 6.91205 8.14651 6.88397 7.99993 6.88421Z" fill="#4CAF4F"/>
</g>
</svg>
